<?xml version="1.0" encoding="utf-8"?>
<!-- Generator: Adobe Illustrator 25.2.1, SVG Export Plug-In . SVG Version: 6.00 Build 0)  -->
<svg version="1.1" id="Warstwa_1" xmlns="http://www.w3.org/2000/svg" xmlns:xlink="http://www.w3.org/1999/xlink" x="0px" y="0px"
	 viewBox="0 0 572.8 187.5" style="enable-background:new 0 0 572.8 187.5;" xml:space="preserve">
<style type="text/css">
	.st0{fill:url(#SVGID_1_);}
	.st1{fill:url(#SVGID_2_);}
	.st2{fill:url(#SVGID_3_);}
</style>
<linearGradient id="SVGID_1_" gradientUnits="userSpaceOnUse" x1="92.182" y1="26.8027" x2="92.182" y2="159.9033">
	<stop  offset="0" style="stop-color:#FFFFFF"/>
	<stop  offset="0.109" style="stop-color:#EBEBEB"/>
	<stop  offset="0.3327" style="stop-color:#B7B7B7"/>
	<stop  offset="0.6521" style="stop-color:#636363"/>
	<stop  offset="1" style="stop-color:#000000"/>
</linearGradient>
<path class="st0" d="M77.5,73l0.1,5.4c-2.2-0.8-4.2-2.6-6.5-5.4l3.8,6.6l-0.1,11.2l8.6,8.2l0.2-22.5L77.5,73z M78.2,90.8
	c-0.6,0-1-0.9-1-2.1c0-1.1,0.5-2.1,1-2.1s1,0.9,1,2.1C79.3,89.8,78.8,90.8,78.2,90.8z M79.4,80.5c-0.6,0-1.1-0.9-1.1-2.1
	c0-1.1,0.5-2.1,1.1-2.1c0.6,0,1,0.9,1,2.1C80.4,79.6,80,80.5,79.4,80.5z M81.5,86.5c-0.6,0-1.1-0.9-1.1-2.1s0.5-2.1,1.1-2.1
	c0.6,0,1,0.9,1,2.1S82.1,86.5,81.5,86.5z M84.3,45.7l0,6.4l-2.6,0.5l2.6,1.8l0,9.7l-5.8-3.1l-0.2-9.1C76,52.4,73,54.2,71,57.1
	c-0.4-6.3,0-12.5,1.3-18.8l6,4l-3.2,5.8l4.9-4.4L84.3,45.7z M107.5,73.3l0.1,5.1c3-1,4.5-3.7,6.6-6.6l-3.9,7.6l0.1,11.2l-8.7,8.5
	l-0.1-22.8l1.2-0.5l1,5.2l0.8-6.3L107.5,73.3z M107,90.6c0.6,0,1-0.9,1-2.1c0-1.1-0.5-2.1-1-2.1s-1,0.9-1,2.1
	C105.9,89.7,106.4,90.6,107,90.6z M106,80.5c0.6,0,1.1-0.9,1.1-2.1c0-1.1-0.5-2.1-1.1-2.1c-0.6,0-1,0.9-1,2.1
	C104.9,79.6,105.4,80.5,106,80.5z M103.7,86.4c0.6,0,1.1-0.9,1.1-2.1s-0.5-2.1-1.1-2.1c-0.6,0-1,0.9-1,2.1S103.1,86.4,103.7,86.4z
	 M112.9,38.2c1.3,6.4,1.8,12.7,1.3,18.8c-1.6-2.5-4.8-4.5-7.3-5.2l-0.6,8.9l-2,1.1l-1.7-6.3l-0.5,7.2l-0.9,0.4l-0.6-17.4L112.9,38.2
	z M53.7,53.4l1.6,1l0.2,19.5c0,0-2.3,0-2.4-3.9L52.5,54C52.5,53.4,53.2,53,53.7,53.4z M53.6,51.5c-0.5-0.3-0.5-1.1,0-1.4l5.3-3.1
	l2.6,1.6l-6.3,4L53.6,51.5z M63.4,51.5L64,44l1.9,1.2l-0.6,8.4l-1.1-0.5C63.7,52.8,63.3,52.1,63.4,51.5z M68.3,41.1L68.3,41.1
	c0.8,0.8,0.6,2.2-0.4,2.8l-0.8,0.5L64.6,43L68.3,41.1z M128.4,48.8c0.4,0.4,1.7,1,2.1,3.7l0.2,21.7c0,0.4-0.1,0.7-0.4,1l-1.8,2.1
	c-0.2,0.2-0.5,0.1-0.6-0.2c-0.2-8.8-0.5-17.6-0.6-23.4c0-1.2-0.5-2.4-1.4-3.3c-2.9-2.9-6.1-4.3-9.8-6.2c-0.9-0.5-0.8-1.7-1-2.7
	l-0.1-0.8C120.9,42.9,124,45.1,128.4,48.8z M60.8,84.1l2.3-0.9c0.5-0.3,1.2,0.2,1.6,0.6l16.8,20.6l10,6.9c0.6,0.6,1.6,0.6,2.2-0.1
	l10.7-7.7l18-20.2c0.3-0.3,0.7-0.4,1-0.3l1.9,0.1c0.8,0.2,1.1,1,0.7,1.7l-6,16.2c-0.3,0.5-0.8,0.7-1.3,0.7l-5.6,0.6
	c-0.8-0.1-1.5,0.3-2,0.9l-17,15.4c-0.4,0.5-1,0.9-1.6,1l-6.4,1.4c-0.9,0.2-1.9,0.1-2.8-0.3l-7-4.2c-0.9-0.4-1.4-1.5-1.4-2.4
	c-1.4-10.5-4.5-17.2-7.8-21.5c-3.3-4.2-6.5-7.1-6.5-7.1C60.1,85.1,60.2,84.4,60.8,84.1z M39.8,54.3l2.6-3l9.8,26.9
	c0.5,1.4,1.3,2.7,2.3,3.8c12.3,11.3,16.4,17.9,18.4,33c0.1,0.5-0.2,0.9-0.7,1l-2.5,0.5c-0.2-1.6-0.5-3.4-0.7-5.3
	c-0.3-2.8-1-5.6-1.7-7.6c-1.8-3.9-3.4-5.9-6.3-9.2l-8.7-9.9c-1.8-2.1-3.5-4.5-4.3-7.2l-8.5-20.7C39.2,55.8,39.3,55,39.8,54.3z
	 M101.3,152.1c0,0.1-0.1,0.1-0.1,0.2C101.1,152.3,101.2,152.2,101.3,152.1z M154.6,72.1l-1.7-1.2c-1.3-1-2.8-1.7-4.3-2.2l-0.6-0.2
	l-0.5-2.1c-0.3-1.3-1.2-2.5-2.4-3l-10.5-5c-0.5-0.2-1.1,0.1-1.1,0.7l0.2,15.3c0,1.2-0.4,2.5-1.1,3.5l-4.1,7.7l-7.6,18.8
	c-0.3,0.4-0.8,0.6-1.2,0.6l-5.9,0.3c-0.6-0.1-1.2,0.2-1.6,0.7l-16.4,14.7c-0.5,0.7-1.2,1.2-2,1.4l-7.4,1.8c-0.9,0.3-1.8,0.7-2.7,1.2
	L59,138l5.8-1.1c2.8-0.3,0,1.5,0.1,3.5c3.7-0.3,0.9,5.2-4.3,7c0.4,0.1,3.2,0.7,2.2,1.1c1.3,0.5,2.6,0.4,3.8-0.2
	c0.5,1-0.8,2.8-3.9,5.5c0.8,0.5,1.4,0.7,2,0.6c1.2,0.7-1.1,3.4-3.8,2.8c3.3,1.6,7.1,1.8,10.3-0.2c3.4-2.4,7.4-4.8,10.6-6.1
	c0.4,0.7,0.7,2.5-0.1,3.2c1.2,1.2,2.9,0.2,3.7,2.4c-0.3,1.3-2.4,2.4-3.9,2.2c1.8,2,8.1,1.2,10.8-1.7c-0.2-2,0.7-2.8,2.2-4.4
	c2.2-1.4,4.6-2.7,8.1-3c0.4,0.6-0.9,1.4-1.4,2.4c1-1,9.6-5,11.9-4.5c1,1.9-0.8,3.4-6.3,6.5c8.7-3.1,13.8-5.7,16-16
	c6.6-14.3,13-29.2,22.7-35.8c0.5,3.5-0.5,5.9-2.2,7.5c2.1,0.6,7.7-9.3,7.7-9.3c-1.7-0.3-0.7-9.5,2-11.7c-0.2-4.4,1.8-6.6,2-8.9
	C155.3,76.5,154.3,74.1,154.6,72.1z M88.4,149.6c-0.2,0-0.7-0.5-0.9-1.1l2.2-0.9L88.4,149.6z M94.7,147.5l0.5-0.5
	c0.2-0.2,0.4-0.3,0.7-0.2l0.7,0.4L94.7,147.5z M118.2,138.5c-0.2,0.2,1.1,2.2,0.6,2.2c-1.5,0-5.6-0.8-4.5-1.8
	c1.1-1.1,2.7-2.4,3.4-3.2c0.7-0.8,1.9,1.1,2.5,1.9C120.8,138.2,118.6,137.9,118.2,138.5z M72.5,117.5l8.6,5.4c0.4,0.3,0.4,0.9,0,1.2
	l-15.9,8.5c-0.6,0.3-1.6,0.4-1.8-0.2c-2.1-4.5-7.9-0.5-9.7,0.4c0,0,2.9-4.7,4.7-6.1c-0.2-1-0.8-1.4-1.7-1.6
	c-0.2-2.2,0.7-4.8,1.8-7.6c-0.8,0.3-1.3,1-2.9,1.6c1.1-1,1.2-2.1,2-2.7c-1.3-0.1-1.9,0.2-2.3,0.4c0,0,0.3-0.7,1.2-1.4
	c0.9-1,0.3-1.5-1.6-1.4c-6.2,0.7-9.1,5.4-9.1,5.4c-0.1-1.1,0.6-2.5,1.3-3.6c0.9-0.8,1.8-4.2-1-1.7c-0.3,0,2.7-5.8,5.3-7.2
	c-0.8-0.3-1.8,0.1-2.7,0.6l4.1-5.8c-2.9-0.5-4.3,0-4.2,0.4c0,0-0.2-1.1,0.1-1.4c0,0-2.3-0.9-4.5,2.4c0.6-3.3,0.5-3.5,3.5-6.2
	l-2.9-2.5c-1.4,0.1-2.1,0.9-3.8,3.8c-0.3-2,0.2-4.7,1.3-6.7c-0.3,0-1-0.4-3.5,1.4c1.3-2.4-4.4-1.2-6.1,1.7c0,0-0.7-2.2,0.8-4.4
	c1.2-1.7,2.7-2.7,2.7-2.7c0.1-0.5-0.8-0.2-2,0.2c0,0,1.1-1.8,2-2.4c-2.2-2.5-4.3-5.8-6.4-9.5c-0.1-0.2-0.1-0.4,0.1-0.5l5.7-4.3
	c0.2-0.1,0.4,0,0.5,0.2c3.6,11.7,10.7,20.9,16.7,27.4c7.5,8,9.2,17.7,9,25.3c0,1.4-0.1,2.8-0.3,4c2.4,2.4,5.5,2.8,9.2,0.1l-0.5-9.8
	 M63.1,99.8c-4-5.2-7-8.1-11.2-12.7C49.7,84.7,47,80,45.8,77l-4.1-10.3l-4.5,3.2c2.6,7.9,7.7,17.1,13,23.6
	c5.3,5.3,8.8,8.8,10.7,15.2c1.8,6.1,2.4,12,1.9,18.4c2.1,1.4,3.7,1.4,5.8,0c0.1-7-0.8-13.8-2.3-20.5
	C65.8,103.9,64.7,101.9,63.1,99.8z M65.8,126.6c-0.8,0-1.5-0.7-1.5-1.5c0-0.8,0.7-1.5,1.5-1.5c0.9,0,1.5,0.7,1.5,1.5
	C67.3,125.9,66.7,126.6,65.8,126.6z M78.3,41l-5.7-3.6l0.7-3.7c4.4-4.8,11-6.2,19.2-6.9c9.2,0.3,15.2,2.8,19,6.9l1,3.6l-10.5,6
	c-1.3,0.7-2.7,1.3-4.1,1.5L92.2,46l-5.2-1c-1.1-0.2-2.3-0.6-3.3-1.1l-2.2-1c-0.3-0.2-0.5-0.6-0.3-0.9l3.6-5.6l-5.6,4.6
	C79,41.1,78.6,41.2,78.3,41z M91.5,103.6l-0.1-56.2L85.6,46l0.1,6.1l2.1,2.3l-2.2,0.2l0,11.5l-8.5-4.5v-7.4c-3.7,1.6-6,2.8-8.2,8.6
	c0.5,5.5,2.3,10.2,7.5,13.4v-4.9l8.5,4.5v24.9L91.5,103.6z M74.6,67.6v-4.6l12.4,6.3v4.5L74.6,67.6z M93.4,103.6l0-56.3l6.2-1.5
	L99.4,66l8.3-4.4l0.3-8.2c3.7,1.6,5.3,3.3,7.5,9.2c-0.5,5.5-1.5,10.2-6.7,13.5v-4.9l-8.5,4.5v24.9L93.4,103.6z M110.3,67.7l0.1-4.6
	l-12.1,6.1v4.5L110.3,67.7z M93.7,119.2"/>
<linearGradient id="SVGID_2_" gradientUnits="userSpaceOnUse" x1="348.0539" y1="108.508" x2="348.2653" y2="173.7083">
	<stop  offset="0" style="stop-color:#FFFFFF"/>
	<stop  offset="8.548176e-02" style="stop-color:#F5F5F5"/>
	<stop  offset="0.2327" style="stop-color:#D9D9D9"/>
	<stop  offset="0.424" style="stop-color:#ACACAC"/>
	<stop  offset="0.652" style="stop-color:#6D6D6D"/>
	<stop  offset="0.908" style="stop-color:#1E1E1E"/>
	<stop  offset="1" style="stop-color:#000000"/>
</linearGradient>
<path class="st1" d="M420.1,147c-3.1-3.4-6.2-6.8-9.3-10.2c-0.6-0.6-1.7-1.9-1.7-1.9c-0.9-0.3-2.4,0.2-2.6,0.5
	c-0.2,0.2-0.5-2-0.4-2.1c0.4,0.3,0.8,0.6,1.4,0.7c0,0,0.5-0.4,0.4-0.5c-1.5-1.7-3-3.4-4.5-5.1c0.7-0.8,1.3-1.4,1.9-2
	c3.3-3.1,6.6-6.2,9.9-9.3c1.5-1.4,3-2.7,4.5-4.1c4.6-4.3,10-7,16.3-8.1h-17.4c-7.7,7.2-15.5,14.5-23.6,22.1v-7.6c0-2.5,0-5,0-7.5
	c-0.1-2.3,0.2-4.7-0.2-7.1h-17.4c6.4,2.1,7.8,4.5,7.8,10.6c0,6,0.4,12,0.5,18.1c0.1,4.9,0.1,9.8,0,14.7c-0.1,3.7-2,6.1-5.4,7.3
	c-0.9,0.3-1.8,0.6-3.2,1h18v-26.5c8.2,9.2,16.1,18,23.8,26.7c5.9,0,11.6,0.1,17.2-0.3C429.7,154.9,424.5,151.7,420.1,147z
	 M499.4,139.2c-0.1-3.5-1.7-6.5-4.5-8.6c-1.8-1.4-3.8-2.5-5.9-3.4c-4.8-1.9-10-2.6-15.2-2.9c-4-0.2-8.1-0.2-12.1-0.6
	c-6.2-0.6-9.9-3.5-11.1-8.4c-0.4-1.6-0.3-3.4-0.4-5.1c-0.1-2.3,0.8-4.4,2.6-5.9c1.4-1.2,3.1-2.2,4.8-3c3-1.4,6.3-1.6,9.6-1.6
	c3.8,0,7.7,0.4,11.1,2.3c5,2.7,5.9,8,2,12.2c-0.2,0.2-0.3,0.5-0.7,1c2.5,0,4.7,0.1,6.9,0c2.2-0.1,4.4,0.3,6.7-0.3
	c0.2-4.1-0.8-7.6-3.5-10.7c-3.2-3.6-7.4-5.3-12-6.2c-5.2-1.1-10.5-0.8-15.8-0.7c-4.2,0.1-8.4,0.6-12.4,1.9c-8.9,3-9.9,8-9.3,14.3
	c0.3,3.5,1.9,6.2,4.5,8.3c4.3,3.5,9.5,4.4,14.8,4.9c1.4,0.1,2.5,0.2,3.9,0.3c0.1-0.2,0.6-0.6,0.6-0.6s0.3,0.7,0.4,0.7
	c1.9,0.1,3.8,0.2,5.7,0.3c3.1,0.2,6,1,8.8,2.5c5.9,3.1,8.1,8.7,6.6,15.6c-1.2,5.3-5,7.9-9.9,9.4c-4.2,1.2-8.5,1.6-12.8,1.2
	c-4.1-0.4-8.1-1.4-11.7-3.7c-5.2-3.4-4.9-9.4-2.4-13.4c0.7-1.1,1.6-2.1,2.1-2.9h-17.4c-0.7,4.4,0,8.2,2.3,11.8
	c2.5,3.8,6.2,6.2,10.4,7.8c5.4,2,11.1,2.7,16.9,2.9c6.4,0.2,12.8-0.2,19.2-1.2c3.8-0.6,7.5-1.6,10.9-3.5c1.7-1,4.1-3.8,4.1-3.8
	c-0.2-1.4-0.7-2.8-1.8-3.9c1.4,0.2,2.3,0.7,3,1.5c0,0,0.4-1.3,0.5-2C499.6,143.4,499.5,141.3,499.4,139.2z M355.8,156.4h18.7
	c-1.7-0.5-2.8-0.8-3.9-1.2c-2.8-1.1-4.5-3.2-5-6.2c-0.2-0.8-0.1-1.7-0.1-2.6c0-5.6,0-11.1-0.1-16.7c-0.1-5.6-0.4-11.3-0.4-16.9
	c0-3.7,1.9-6.1,5.3-7.4c0.5-0.2,1.1-0.4,1.6-0.5c0-0.1-0.1-0.2-0.1-0.3h-23.2c4.7,1.6,7.1,3.9,7,9.7c-0.1,10.6,0,21.3,0,31.9
	c0,0.8-0.1,1.6-0.1,2.7c-11.5-15-22.7-29.7-33.9-44.3c-3,0-5.8-0.1-8.5,0c-2.8,0.1-5.6-0.6-8.7,0.2c5.2,1.6,7.5,3.9,7.5,10
	c0,1,0,2.1,0,3.1c0,0.2,3.1-0.1,3.1,0.2c0,0.1-0.7,0.3-1.4,0.5c-0.4,0.1,0.5,0.4,0.1,0.5c-0.3,0.1-1.8,0.1-1.8,0.1
	c0,2.5,0,4.9,0,7.4c0,3.7,0,7.5,0.1,11.2c0.1,3.4,0.3,6.9,0.2,10.3c0,2.6-1.1,4.8-3.5,6.2c-2.8-1.8-4.5-4.4-5.9-7.2
	c-6.3-13.1-12.6-26.2-18.8-39.3c-0.5-1-1-2-1.5-3h-18c1.3,0.4,1.9,0.5,2.5,0.7c2.7,1.1,3.6,2.8,2.9,5.7c-0.2,0.9-0.6,1.8-1,2.7
	c-2.2,5.2-4.5,10.4-6.7,15.5c-2.7,6.1-5.3,12.3-8.1,18.4c-1,2.2-2.1,4.2-4.6,5.4c-0.8-0.5-1.5-0.9-2.1-1.5c-0.8-0.7-1.7-1.3-2.3-2.2
	c-3.8-5.2-7.5-10.4-11.3-15.8c1.5-0.7,2.8-1.1,4-1.7c5.9-2.9,8.6-8,7.8-15.2c-0.7-6.3-4.8-9.7-10-11.3c-3.7-1.1-7.4-1.1-11.1-1.1
	c-7.5-0.1-15,0-22.5,0c-1.5,0-3,0.1-4.4,0.1c0.4,0.6,0.9,0.6,1.3,0.8c3,1,5.9,3.2,5.8,7.9c0,2.3,0.3,4.6,0.3,6.9
	c0,2.9,0.1,5.7,0.1,8.6c0.8,0.4,2.7-0.1,3-0.5c0,0,0,1.2-0.9,1.2s-0.1,0.6-0.1,0.6s-2-0.1-2,0c0,6.1,0.1,12.2,0.1,18.3
	c0,3.2-1.6,5.4-4.5,6.7c-1.2,0.5-2.5,0.8-3.8,1.2c4.1,0.5,15.5,0.4,17.8-0.2v-21.3h10c5.1,7.2,10.2,14.5,15.2,21.7h27
	c-1.2-0.4-1.9-0.6-2.5-0.9c-2.3-1-3.1-2.8-2.5-5.1c0.2-0.8,0.6-1.6,0.9-2.4c1.3-3,2.6-5.9,4-8.9c0.3-0.7,0.7-1.3,1-1.8h24.9
	c3.1,6.4,6.2,12.9,9.2,19.1h27.9c-0.3-0.3-0.7-0.4-1.1-0.5c-4.6-1.1-7.2-3.5-7.2-9.1c0.2-10.7,0-21.5,0-32.2c0-0.7,0.1-1.4,0.1-2.5
	C333.4,127.2,344.6,141.8,355.8,156.4z M209.3,130.3c-0.2-0.2-0.4-0.5-0.4-0.8c0.5,0,0.9,0.1,1.2,0.2
	C209.9,130.1,209.7,130.2,209.3,130.3z M225.5,131c-3.5,0.4-7,0.1-10.7,0.1v-22.8c3.7,0,7.2-0.2,10.6,0.1c4.3,0.4,8.3,3.4,9.1,9.3
	c0.3,1.8,0.2,3.7-0.1,5.4C233.4,127.8,230.2,130.5,225.5,131z M269.3,133.6c3.5-7.7,6.9-15.3,10.5-23.4c3.8,8,7.5,15.6,11.1,23.2
	C288.9,134,273.6,134.2,269.3,133.6z"/>
<linearGradient id="SVGID_3_" gradientUnits="userSpaceOnUse" x1="367.2535" y1="37.6124" x2="366.4868" y2="113.8324">
	<stop  offset="0" style="stop-color:#FFFFFF"/>
	<stop  offset="0.109" style="stop-color:#EBEBEB"/>
	<stop  offset="0.3327" style="stop-color:#B7B7B7"/>
	<stop  offset="0.6521" style="stop-color:#636363"/>
	<stop  offset="1" style="stop-color:#000000"/>
</linearGradient>
<path class="st2" d="M245.5,67.9c-0.6-3.8-2.3-7-5.5-9.5c-2.7-2.1-5.8-3.1-9.4-4c4.3-1.6,6.5-4.5,7.3-8.5c0.2-1.3,0.2-2.7,0.2-4
	c-0.1-6.4-3.8-10.7-9.2-12.5c-4-1.3-8.1-1.3-12.2-1.3c-8.2,0-16.5,0-24.8,0c-2,0-4.1-0.3-6.3,0.4c5.1,1.5,7.4,3.8,7.4,9.7
	c0,1.5,0,2.9,0.1,4.4c0,0.2,2.3,0.6,2.3,0.8c0,0.2-2.3,0.3-2.3,0.5c0.1,4,0.2,8,0.3,12.1c0.1,6.7,0,13.4,0.2,20.1
	c0.1,6.1-1.7,11.5-5.3,16.3c-1.8,2.4-3.9,4.6-5.9,6.9c0.1,0.1,0.2,0.1,0.2,0.2c0.4-0.3,0.8-0.6,1.1-0.8c4-2.8,8.1-5.5,12.6-7.5
	c2.9-1.3,5.9-2,9.2-2c4.7,0.1,9.4,0,14.1,0c3.6,0,7.3,0.3,10.9-0.1c6.8-0.8,11.9-4.7,14.2-11.3C245.9,74.6,246,71.2,245.5,67.9z
	 M203.1,31.9c0.6-0.1,1.3-0.2,1.9-0.2c3.9,0,7.9,0.1,11.8,0c5.3-0.1,10.3,3.9,10.4,10.3c0,1,0.1,1.9,0,2.9
	c-0.9,5.7-3.8,9.3-10.5,9.8c-4.4,0.3-8.8,0-13.5,0V31.9z M228.7,83.5c-2.9,1.7-6,2.6-9.2,2.8c-5.4,0.2-10.7,0.1-16.1,0.1
	c-0.2-0.7-0.3-3.3-0.4-6.8c0-0.4-2.7-0.9-2.7-1.3c0-0.4,2.7-0.6,2.7-0.9c0-0.2,0-0.5,0-0.7c0-0.3-1.9-0.1,0-1
	c-0.1-6.7,0-14.4,0.2-17.4c6.2,0,12.2-0.2,18.3,0.1c3.3,0.1,6.3,1.5,8.9,3.5C237.1,67.2,236.3,78.9,228.7,83.5z M498.9,44.8
	c11.6,15.2,22.8,29.8,34,44.4h18c-6.1-1.9-8-4-8.1-9c-0.1-4.8-0.1-9.5-0.2-14.3c0-0.3-6.4-0.5-6.4-0.5s1-0.4,2.3-0.6
	c0.5-0.1,0.1-0.9,0.1-0.9s4,0.1,4-0.1c0-6.2-0.1-12.3-0.1-18.5c0-3.3,1.6-5.6,4.8-6.8c1-0.4,1.9-0.6,3.1-1
	c-3.5-0.5-23.1-0.4-25.2,0.1c0.5,0.1,1,0.2,1.4,0.4c4.3,1.2,6.3,3.9,6.2,8.4c-0.2,10.6-0.1,21.3-0.1,31.9v3.4
	c-10.2-13.4-20.2-26.4-30.1-39.4l-5.4-0.4l1.8-0.4l-0.5-0.4l3-0.3c-0.9-1.2-1.8-2.3-2.6-3.4h-18.2c1.1,0.4,1.6,0.6,2.1,0.8
	c4.7,1.7,6.1,3.6,6.2,8.5c0,3.1,0.3,6.1,0.3,9.2c0.1,8.5,0.2,17.1,0.2,25.6c0,2.7-1.3,4.8-3.7,6c-1.1,0.6-2.2,0.9-3.4,1.4
	c2.9,0.6,21.6,0.5,23.5-0.2c-0.6-0.2-1.2-0.3-1.7-0.5c-3.2-1.2-4.9-3.5-5.3-6.9c-0.1-0.6,0-1.1,0-1.7V44.8z M293.8,82.1
	c-3.6-4.9-7.1-10-10.8-15.2c1.7-0.7,3.1-1.2,4.3-1.8c1-0.5,2.8-1.8,2.8-1.8c-0.2-1.5-0.2-3,0.1-4.6c0.9,0.8,1.8,1.3,2.8,1.4
	c0,0,1.1-2.2,1.4-3.5c0.4-1.9,0.4-4,0.3-6c-0.2-5.8-3.4-9.3-8.6-11.3c-1.4-0.5-2.8-0.9-4.3-1.2c-1.2,2.8-0.6-0.1-0.9-0.1
	c-1.3-0.2-2.5-0.3-3.8-0.3c-7-0.1-13.9-0.1-20.9-0.1v3.7c-0.5-1.8-1.5-2.8-2.7-3.7h-5.5c-0.7,0-1.3,0.1-2.6,0.2
	c1,0.2,1.3,0.3,1.7,0.4c5.3,1.6,7,3.9,7,9.4c0,4.7,0.1,9.4,0.2,14.1c0,2.9,0.2,5.7,0.2,8.6c0,4.1,0,8.2-0.2,12.3
	c-0.1,2.8-1.8,4.5-4.3,5.6c-0.8,0.3-1.5,0.6-2.3,0.9c0,0.1,0.1,0.2,0.1,0.3h16.3c0-3.8,0-7.4,0-11c0-3.6-0.1-7.2,0.1-10.8h9.6
	c5.1,7.3,10.2,14.6,15.3,21.7c4.7,0.5,14.7,0.3,16.7-0.3C300.3,87.7,296.3,85.6,293.8,82.1z M275.1,63.9c-3.5,0.3-7.1,0.1-10.6,0.1
	c-0.5-2.2-0.6-18.9-0.1-23.2c3.9,0.2,7.6,0.1,11.3,0.8c4.7,0.9,7.3,4.2,8,8.9c0.4,2.4,0.2,4.7-0.5,7C281.9,61.4,279,63.5,275.1,63.9
	z M401.7,79.4c-0.9-1-2.6-2.9-2.6-2.9c-1.3,0.1-2.6-0.2-3.2-0.9c-0.8-0.8-2.6-0.6-3.6-1.4c1-0.6,2-1.3,3-2c0,0-2.5-2.9-3.8-4.3
	c-2-2.2-3.9-4.5-5.9-6.8c5.7-5.4,11.2-10.7,16.9-15.8c3.6-3.2,7.8-5.5,12.6-6.7c1-0.3,2.1-0.5,3.1-0.8c0-0.1,0-0.2-0.1-0.3H401
	c-3.9,3.6-7.8,7.3-11.7,10.9c-3.9,3.6-7.7,7.3-12.2,11.2v-22h-18c0.8,0.3,1.3,0.5,1.8,0.6c4.9,1.5,6.4,5,6.3,9
	c-0.1,5.5,0.4,10.9,0.4,16.4c0.1,5.8,0.1,11.7,0,17.5c0,3.5-1.8,6-5.2,7.2c-0.6,0.2-1.2,0.4-2.2,0.7c4.2,0.6,14.8,0.4,16.9-0.2v-26
	c8.1,9.1,15.9,17.8,23.5,26.3c4.4,0.4,14.7,0.3,16.9-0.2c-1.4-0.5-2.9-0.8-4.3-1.4C408.7,85.9,404.9,83,401.7,79.4z M358.5,60.4
	c-0.8-5.8-3.5-10.7-8.6-13.9c-3.6-2.2-7.5-3.4-11.6-3.8c-1.9-0.2-3.9-0.6-6.2,0.3c8.7,1.3,13.1,6.6,14.9,14.3
	c0.7,3.1,0.9,6.2,0.7,9.4c-0.2,4.3-1.2,8.3-3.4,12c-4.9,8-11.2,9.2-18.4,8c-6.6-1.1-10.1-5.9-11.5-12.2c-1.1-4.8-1.4-9.6-0.7-14.5
	c1.4-9.6,6.3-16.2,15.4-19.6c3.4-1.3,7-1.9,10.6-2c-6.9-1.6-13.6-0.6-20.1,1.5c-3.2,1-6.1,2.7-8.6,5.1c-6.8,6.6-9.7,14.4-8.4,23.9
	c1.3,9.8,6.4,16.3,15.7,19.3c8.9,2.9,18,2.6,26.7-0.9c7.1-2.8,11.5-8,13.2-15.5C359,68,359,64.2,358.5,60.4z M468.9,85.9
	c-1.2,0.1-2.5,0.3-3.7,0.3c-7.2,0-14.4,0-21.6,0h-2.9V63.6c3,0,5.8,0,8.7,0c3.2-0.1,6.2,0.1,8.4,3.2V56.7c-1.3,2.4-3,3.4-5,3.4
	c-4,0.2-8,0.1-12.1,0.1V41h3c7.7,0,15.4,0,23.1,0c4.1,0,7.7,0.9,10.2,5.3c0.1-3.2,0.4-5.9-0.2-8.6h-53.8c0.3,0.4,0.7,0.4,1,0.5
	c5,1.5,6.9,4.5,6.7,9.3c-0.1,1.7-0.1,3.4,0,5.1c0,0.1,2.4,0.3,2.4,0.3s-2.4,0.3-2.4,0.4c0,1.5,0.1,3,0.1,4.5
	c0.1,7.8,0.4,15.5,0.4,23.3c0,3.5-1.8,6-5.1,7.2c-0.6,0.2-1.3,0.4-1.9,0.7c0,0.1,0,0.2,0.1,0.2h52.7v-7.6
	C474.8,84.3,472.2,85.7,468.9,85.9z"/>
</svg>
